%TF.GenerationSoftware,KiCad,Pcbnew,8.0.3*%
%TF.CreationDate,2024-09-12T16:22:09+02:00*%
%TF.ProjectId,LG-remote,4c472d72-656d-46f7-9465-2e6b69636164,rev?*%
%TF.SameCoordinates,Original*%
%TF.FileFunction,Soldermask,Top*%
%TF.FilePolarity,Negative*%
%FSLAX46Y46*%
G04 Gerber Fmt 4.6, Leading zero omitted, Abs format (unit mm)*
G04 Created by KiCad (PCBNEW 8.0.3) date 2024-09-12 16:22:09*
%MOMM*%
%LPD*%
G01*
G04 APERTURE LIST*
G04 Aperture macros list*
%AMRoundRect*
0 Rectangle with rounded corners*
0 $1 Rounding radius*
0 $2 $3 $4 $5 $6 $7 $8 $9 X,Y pos of 4 corners*
0 Add a 4 corners polygon primitive as box body*
4,1,4,$2,$3,$4,$5,$6,$7,$8,$9,$2,$3,0*
0 Add four circle primitives for the rounded corners*
1,1,$1+$1,$2,$3*
1,1,$1+$1,$4,$5*
1,1,$1+$1,$6,$7*
1,1,$1+$1,$8,$9*
0 Add four rect primitives between the rounded corners*
20,1,$1+$1,$2,$3,$4,$5,0*
20,1,$1+$1,$4,$5,$6,$7,0*
20,1,$1+$1,$6,$7,$8,$9,0*
20,1,$1+$1,$8,$9,$2,$3,0*%
G04 Aperture macros list end*
%ADD10R,2.100000X2.100000*%
%ADD11C,2.100000*%
%ADD12R,1.200000X0.900000*%
%ADD13RoundRect,0.250000X1.000000X-1.500000X1.000000X1.500000X-1.000000X1.500000X-1.000000X-1.500000X0*%
%ADD14RoundRect,0.250000X-0.262500X-0.450000X0.262500X-0.450000X0.262500X0.450000X-0.262500X0.450000X0*%
%ADD15RoundRect,0.250000X-0.250000X-0.475000X0.250000X-0.475000X0.250000X0.475000X-0.250000X0.475000X0*%
%ADD16RoundRect,0.150000X0.150000X-0.825000X0.150000X0.825000X-0.150000X0.825000X-0.150000X-0.825000X0*%
%ADD17R,1.500000X2.500000*%
%ADD18O,1.500000X2.500000*%
%ADD19RoundRect,0.250000X-0.450000X0.262500X-0.450000X-0.262500X0.450000X-0.262500X0.450000X0.262500X0*%
%ADD20R,2.000000X2.000000*%
%ADD21O,1.600000X2.000000*%
%ADD22RoundRect,0.250000X0.475000X-0.250000X0.475000X0.250000X-0.475000X0.250000X-0.475000X-0.250000X0*%
%ADD23R,0.900000X1.200000*%
G04 APERTURE END LIST*
D10*
%TO.C,J1*%
X139446000Y-81915000D03*
D11*
X139446000Y-84455000D03*
X139446000Y-86995000D03*
%TD*%
D12*
%TO.C,D1*%
X139573000Y-93725000D03*
X139573000Y-90425000D03*
%TD*%
D13*
%TO.C,C3*%
X130302000Y-93166000D03*
X130302000Y-86666000D03*
%TD*%
D14*
%TO.C,R1*%
X126849500Y-80772000D03*
X128674500Y-80772000D03*
%TD*%
D15*
%TO.C,C2*%
X114940000Y-83566000D03*
X116840000Y-83566000D03*
%TD*%
D16*
%TO.C,U2*%
X115570000Y-92518000D03*
X116840000Y-92518000D03*
X118110000Y-92518000D03*
X119380000Y-92518000D03*
X119380000Y-87568000D03*
X118110000Y-87568000D03*
X116840000Y-87568000D03*
X115570000Y-87568000D03*
%TD*%
D17*
%TO.C,U1*%
X139573000Y-98044000D03*
D18*
X137033000Y-98044000D03*
X134493000Y-98044000D03*
%TD*%
D19*
%TO.C,R2*%
X114427000Y-96242500D03*
X114427000Y-98067500D03*
%TD*%
D20*
%TO.C,U3*%
X99060000Y-102004000D03*
D21*
X101600000Y-102004000D03*
X104140000Y-102004000D03*
X106680000Y-102004000D03*
X109220000Y-102004000D03*
X111760000Y-102004000D03*
X114300000Y-102004000D03*
X116840000Y-102004000D03*
X116840000Y-79144000D03*
X114300000Y-79144000D03*
X111760000Y-79144000D03*
X109220000Y-79144000D03*
X106680000Y-79144000D03*
X104140000Y-79144000D03*
X101600000Y-79144000D03*
X99060000Y-79144000D03*
%TD*%
D22*
%TO.C,C1*%
X132588000Y-80579000D03*
X132588000Y-78679000D03*
%TD*%
D23*
%TO.C,D2*%
X123316000Y-81915000D03*
X120016000Y-81915000D03*
%TD*%
M02*
