M48
; DRILL file {KiCad 8.0.3} date 2024-09-12T16:22:11+0200
; FORMAT={-:-/ absolute / inch / decimal}
; #@! TF.CreationDate,2024-09-12T16:22:11+02:00
; #@! TF.GenerationSoftware,Kicad,Pcbnew,8.0.3
; #@! TF.FileFunction,Plated,1,2,PTH
FMAT,2
INCH
; #@! TA.AperFunction,Plated,PTH,ViaDrill
T1C0.0157
; #@! TA.AperFunction,Plated,PTH,ComponentDrill
T2C0.0394
; #@! TA.AperFunction,Plated,PTH,ComponentDrill
T3C0.0433
%
G90
G05
T1
X3.8484Y-3.0413
X3.8484Y-3.189
X3.8484Y-3.3268
X3.8484Y-3.4744
X3.8484Y-3.6024
X3.8484Y-3.7303
X3.8484Y-3.8386
X3.8484Y-3.9272
X3.8484Y-4.1043
X3.9567Y-3.2874
X4.0059Y-3.8091
X4.0453Y-3.5236
X4.0551Y-3.0413
X4.0551Y-4.1043
X4.0846Y-3.3957
X4.1437Y-3.0413
X4.1437Y-3.7008
X4.1437Y-3.8681
X4.1535Y-3.189
X4.2126Y-3.5335
X4.2421Y-3.0413
X4.252Y-4.1043
X4.2717Y-3.1988
X4.2717Y-3.2874
X4.2815Y-3.8976
X4.3012Y-3.7992
X4.3209Y-3.6614
X4.3406Y-3.1988
X4.3504Y-3.0413
X4.3701Y-3.4055
X4.3799Y-3.2972
X4.4193Y-3.1988
X4.439Y-3.9272
X4.4488Y-3.7106
X4.4488Y-4.1043
X4.5472Y-3.0413
X4.5768Y-3.2248
X4.6161Y-3.2248
X4.6161Y-3.3465
X4.626Y-4.1043
X4.6555Y-3.2248
X4.66Y-3.29
X4.6654Y-3.7303
X4.6654Y-3.8189
X4.6654Y-3.9469
X4.7343Y-3.0413
X4.7441Y-3.1594
X4.7638Y-3.5925
X4.7835Y-3.4449
X4.8327Y-3.7008
X4.8327Y-4.1043
X4.8622Y-3.8091
X4.872Y-3.9567
X4.9016Y-3.0413
X4.9016Y-3.2874
X4.9213Y-3.6024
X5.0098Y-3.3661
X5.0295Y-3.7205
X5.0394Y-3.8386
X5.0591Y-4.1043
X5.1083Y-3.0413
X5.128Y-3.248
X5.1575Y-3.9567
X5.1772Y-4.1043
X5.2362Y-3.6122
X5.2362Y-3.75
X5.2854Y-3.2579
X5.29Y-3.095
X5.2953Y-3.6909
X5.3051Y-4.1043
X5.36Y-3.095
X5.374Y-3.7402
X5.3839Y-3.376
X5.3937Y-3.2874
X5.3937Y-3.5039
X5.3937Y-3.9764
X5.4035Y-3.2283
X5.4232Y-3.6811
X5.4626Y-3.7205
X5.4724Y-4.1043
X5.4921Y-3.7697
X5.502Y-3.0413
X5.6004Y-3.0413
X5.6004Y-3.376
X5.6004Y-3.5335
X5.6004Y-3.7795
X5.6004Y-3.9173
X5.6004Y-4.0059
X5.6004Y-4.1043
T2
X3.9Y-3.1159
X3.9Y-4.0159
X4.0Y-3.1159
X4.0Y-4.0159
X4.1Y-3.1159
X4.1Y-4.0159
X4.2Y-3.1159
X4.2Y-4.0159
X4.3Y-3.1159
X4.3Y-4.0159
X4.4Y-3.1159
X4.4Y-4.0159
X4.5Y-3.1159
X4.5Y-4.0159
X4.6Y-3.1159
X4.6Y-4.0159
X5.295Y-3.86
X5.395Y-3.86
X5.495Y-3.86
T3
X5.49Y-3.225
X5.49Y-3.325
X5.49Y-3.425
M30
